<?xml version="1.0" encoding="UTF-8" standalone="no"?>
<svg
   xmlns:dc="http://purl.org/dc/elements/1.1/"
   xmlns:cc="http://creativecommons.org/ns#"
   xmlns:rdf="http://www.w3.org/1999/02/22-rdf-syntax-ns#"
   xmlns:svg="http://www.w3.org/2000/svg"
   xmlns="http://www.w3.org/2000/svg"
   viewBox="0 0 59.733334 64"
   height="64"
   width="59.733334"
   xml:space="preserve"
   id="svg2"
   version="1.1"><metadata
     id="metadata8"><rdf:RDF><cc:Work
         rdf:about=""><dc:format>image/svg+xml</dc:format><dc:type
           rdf:resource="http://purl.org/dc/dcmitype/StillImage" /></cc:Work></rdf:RDF></metadata><defs
     id="defs6" /><g
     transform="matrix(1.3333333,0,0,-1.3333333,0,64)"
     id="g10"><g
       transform="scale(0.1)"
       id="g12"><path
         id="path14"
         style="fill:#ffffff;fill-opacity:1;fill-rule:nonzero;stroke:none"
         d="M 16.0195,16.0156 V 343.98 H 431.992 V 16.0156 Z m 0,415.9764 h 47.961 v -23.984 c 0,-4.418 3.5976,-8.008 8.0117,-8.008 h 56.0158 c 4.414,0 8.012,3.59 8.012,8.008 v 23.984 h 175.972 v -23.984 c 0,-4.418 3.594,-8.008 8.008,-8.008 h 56.016 c 4.414,0 7.968,3.59 7.968,8.008 v 23.984 h 48.008 V 360 H 16.0195 Z M 80,463.98 h 40 V 416.02 H 80 Z m 248.008,0 h 40 v -47.96 h -40 z M 440,448.008 h -56.016 v 23.984 c 0,4.418 -3.554,8.008 -7.968,8.008 L 320,480 c -4.414,0 -8.008,-3.59 -8.008,-8.008 V 448.008 H 136.02 v 23.984 c 0,4.418 -3.598,8.008 -8.012,8.008 H 71.9922 c -4.4141,0 -8.0117,-3.59 -8.0117,-8.008 V 448.008 H 8.00781 C 3.58984,448.008 0,444.41 0,440 V 8.00781 C 0,3.59375 3.58984,0 8.00781,0 H 440 c 4.414,0 8.008,3.59375 8.008,8.00781 V 440 c 0,4.41 -3.594,8.008 -8.008,8.008 v 0" /><path
         id="path16"
         style="fill:#ffffff;fill-opacity:1;fill-rule:nonzero;stroke:none"
         d="M 360,280 V 223.984 H 303.984 V 280 Z m 0,-128.008 h -56.016 v 56.016 H 360 Z M 360,80 h -56.016 v 56.016 H 360 Z m -71.992,0 h -56.016 v 56.016 h 56.016 z M 216.02,80 H 160 v 56.016 h 56.02 z m -72.04,0 H 88.0078 v 56.016 H 143.98 Z M 88.0078,208.008 H 143.98 V 151.992 H 88.0078 Z m 0,71.992 H 143.98 V 223.984 H 88.0078 Z M 160,280 h 56.02 V 223.984 H 160 Z m 0,-71.992 h 56.02 V 151.992 H 160 Z m 128.008,-56.016 h -56.016 v 56.016 h 56.016 z M 231.992,280 h 56.016 v -56.016 h -56.016 z m 56.016,16.02 H 71.9922 V 63.9844 H 376.016 V 296.02 h -88.008" /></g></g></svg>